<svg xmlns="http://www.w3.org/2000/svg" viewBox="0 0 24 24"><defs><style>.a{fill:none;stroke:#000;stroke-linecap:round;stroke-linejoin:round;stroke-width:1.5px;}</style></defs><title>paginate-filter-picture</title><rect class="a" x="3.75" y="0.746" width="19.5" height="19.5" rx="1.5" ry="1.5"/><path class="a" d="M20.25,23.246h-18a1.5,1.5,0,0,1-1.5-1.5v-18"/><line class="a" x1="8.624" y1="6.746" x2="8.624" y2="6.746"/><path class="a" d="M8.624,6.746A.375.375,0,1,0,9,7.121a.375.375,0,0,0-.375-.375"/><path class="a" d="M20.25,15.746,16.38,9.91A.749.749,0,0,0,15.142,9.9l-1.995,2.85-1.237-.989a.75.75,0,0,0-1.092.17L8.272,15.746Z"/></svg>